<?xml version="1.0" encoding="UTF-8"?><svg id="Layer_2" xmlns="http://www.w3.org/2000/svg" viewBox="0 0 367.51 367.51"><defs><style>.cls-1{fill:#fff;}</style></defs><g id="Layer_1-2"><g><circle cx="183.76" cy="183.76" r="183.76"/><g><g><g><path class="cls-1" d="M46.26,127.08c6.7-3.97,9.56-17.33,5.04-24.44-2.27-3.58-1.85-5.68,.75-9.06,3.77-4.9,6.58-10.63,9.25-16.26,3.17-6.69,10.18-8.86,14.96-13.6,2.21-2.2,2.96-4.13,3.03-7.71,.09-4.3,3.28-9.01,6.22-12.66,3.13-3.88,7.56-6.72,12.24-10.72,5.35,2.69,12.08,2.62,19.38-1.29,9.62-5.14,20.54-5.32,31.22-5.92,2.63-.15,5.24-.99,7.85-.95,2.92,.04,5.83,.72,7.82,1,.36,3.27,.66,5.68,.87,8.09,.07,.77-.02,1.59-.23,2.34-.59,2.07-2.26,5.59-1.77,5.92,3.05,2.01,6.51,3.45,9.95,4.78,2.59,1,6.66,.72,7.79,2.48,3.96,6.16,11.3,4.86,16.34,8.46,3.36,2.4,5.41,.05,5.5-3.59,.15-6.56,5.04-10.29,10.65-6.69,7.5,4.81,16.31,4.34,23.99,7.81,.72,.32,1.92,.72,2.34,.38,5.2-4.14,10.4-2.2,16.1-1.08,4.25,.84,5.59,2.24,5.67,6.1,.07,3.39,.44,6.77,.68,10.16l-1.57,.58c-1.95-2.85-.82,.48-3.33-3.19,.17,1.89,1.45,3.13,1.94,3.88,5.16,7.98,6.12,9.52,7.58,19.33,.21,1.41,2.88,2.3,3.69,3.82,1.37,2.56,2.08,5.45,3.21,8.15,1.37,3.27,2.82,6.51,4.36,9.71,.43,.9,1.82,1.56,1.86,2.38,.57,9.9,9.2,13.08,15.15,18.5,1.34,1.22,2.57,2.72,3.39,4.33,4.71,9.25,4.65,9.19,13.94,6.78,5.81-1.51,11.71-2.72,19-4.4-.98,4.62-.9,9.11-2.81,12.45-6.83,11.95-13.31,23.81-25.28,32.42-8.96,6.45-17.29,15.01-21.57,26.11-.37,.95-1.27,1.99-1.09,2.81,1.11,5.11,2.4,10.18,3.75,15.24,.98,3.66,2.76,7.23,3.06,10.93,.38,4.79,.55,9.97-.94,14.4-1.03,3.08-4.9,5.29-7.67,7.69-4.75,4.11-9.68,8.01-14.37,12.18-.56,.5-.19,2.2-.02,3.31,.69,4.57,1.84,9.12,2,13.7,.05,1.58-2.01,3.71-3.64,4.74-2.16,1.36-4.84,1.89-7.16,2.73,.65,7.09,1.11,13.46-5.72,17.59-1.39,.84-2.16,2.89-2.92,4.52-4.73,10.07-16.03,21.23-28.88,19.59-4.04-.52-8.41,.99-12.55,1.92-6.4,1.44-12.33-4.12-11.33-10.54,.28-1.79-.24-3.96-1.08-5.6-2.98-5.8-6.84-11.21-9.26-17.22-2.34-5.79-4.03-12.05-4.72-18.24-1.03-9.18-4.38-17.03-10.14-24.1-.89-1.1-1.33-3.2-.97-4.57,1.98-7.5,1.73-15.73,7.15-22.14,.75-.89,1.7-2.28,1.49-3.19-1.39-6.05-3.06-12.04-4.68-18.03-.72-2.69-.99-5.7-2.43-7.94-1.92-3-4.47-5.81-7.32-7.94-4.27-3.2-6.28-6.69-4.75-12.11,1.11-3.91,1.79-7.98,2.22-12.03,.43-4.02-1.54-6.8-5.68-7.38-2.63-.36-5.38,.11-7.99-.34-1.8-.31-4.51-1.17-4.97-2.45-2.24-6.23-6.92-5.59-11.56-4.46-4.1,1-7.94,3.16-12.06,4.04-2.96,.63-6.21-.24-9.3,0-4.53,.37-9.34,.33-13.44,1.97-4.14,1.65-6.99,1.03-10.79-.75-12.15-5.67-19.43-16.06-26.8-26.39-3.69-5.17-6.96-10.63-10.66-16.33Z"/><path d="M47.43,129.08c5.6-3.46,8.09-10.59,8.35-16.88,.14-3.24-.39-6.53-1.79-9.47-.68-1.43-2.01-2.81-1.85-4.5,.18-1.79,1.92-3.46,2.91-4.85,2.76-3.86,4.96-8.08,7.02-12.34,.82-1.68,1.53-3.46,2.65-4.97s2.48-2.69,3.91-3.78c2.85-2.16,5.98-3.93,8.63-6.35,2.84-2.6,4.13-5.61,4.33-9.43,.24-4.67,3.19-8.89,6.21-12.31,3.37-3.83,7.73-6.68,11.6-9.96l-2.8,.36c4.81,2.34,10.13,2.71,15.28,1.32,3.02-.82,5.65-2.34,8.47-3.62,2.62-1.19,5.41-2.01,8.21-2.63,5.76-1.26,11.67-1.53,17.54-1.85,3.03-.16,5.97-.84,8.98-1.04,2.81-.19,5.56,.48,8.32,.88l-1.7-2.23c.3,2.69,.72,5.39,.87,8.09,.12,2.18-1.11,4.18-1.74,6.21-.24,.78-.46,1.64-.26,2.46,.33,1.37,1.75,2,2.87,2.64,2.62,1.49,5.43,2.66,8.23,3.75,2.16,.84,4.51,1.07,6.75,1.61,.13,.03,.28,.14,.38,.21-.16-.11-.45-.63,.09,.2,.31,.48,.69,.93,1.06,1.36,.81,.93,1.8,1.73,2.85,2.39,3.63,2.29,8.1,2.38,11.81,4.41,1.98,1.08,3.75,2.53,6.17,1.85,2.15-.61,3.4-2.71,3.8-4.78s.08-4.45,1.54-6.3c.95-1.2,2.32-1.62,3.79-1.25,1.11,.28,2.01,.95,2.99,1.52,1.34,.77,2.76,1.4,4.2,1.97,2.54,.99,5.2,1.63,7.85,2.22s5.47,1.15,8.13,1.99c2.25,.71,5.2,2.77,7.55,1.44,1.31-.74,2.31-1.59,3.81-1.96,1.32-.32,2.71-.3,4.06-.15,2.66,.29,5.53,.88,8.09,1.66,1.71,.52,2.21,1.28,2.31,3.07,.2,3.53,.44,7.04,.7,10.56l1.7-2.23-1.57,.58,2.61,1.06c-.67-.95-1.4-2.04-2.6-2.35-.42-.11-1.25-.34-.46,.04,.25,0,.46,.09,.63,.26l-.18-.18c0-.13-.7-.93-.72-.96-1.57-2.23-4.6-.8-4.23,1.78,.31,2.17,1.73,3.74,2.88,5.52,1.08,1.67,2.16,3.35,3.12,5.09,1.65,3,2.46,6.21,3.04,9.57,.41,2.34,.49,4.2,2.47,5.76,.64,.5,1.42,.94,1.91,1.6,.71,.95,1.09,2.41,1.49,3.52,.93,2.6,1.92,5.14,3.03,7.67,.55,1.27,1.12,2.52,1.7,3.78s1.07,2.67,1.95,3.74c.31,.38,.69,.67,1.02,1.03s.03-.05,0-.14c.08,.23,.08,.7,.1,.92,.15,1.14,.36,2.25,.74,3.33,.68,1.96,1.69,3.7,2.97,5.31,2.42,3.03,5.69,5.21,8.77,7.5,1.54,1.15,3.08,2.34,4.38,3.77,1.62,1.78,2.52,4.05,3.65,6.15,1.24,2.28,2.76,4.87,5.45,5.59,3.43,.92,7.47-.76,10.76-1.58,5.82-1.46,11.7-2.68,17.55-4.02l-2.85-2.85c-.65,3.23-.79,6.58-1.7,9.75-.79,2.75-2.65,5.28-4.07,7.74-3.02,5.2-6.16,10.39-9.94,15.08s-8.38,8.65-13.28,12.38-9.01,7.55-12.66,12.17c-1.92,2.42-3.67,4.97-5.16,7.68-.7,1.29-1.35,2.6-1.93,3.95s-1.39,2.72-1.86,4.11c-.52,1.55,.04,3.09,.39,4.63,.42,1.84,.86,3.67,1.32,5.49,.88,3.55,1.73,7.11,2.92,10.57,1.1,3.2,1.93,6.16,2.11,9.55s.2,6.55-.58,9.71c-.7,2.83-2.61,4.36-4.84,6.09-2.59,2.01-5.05,4.17-7.56,6.27-3.02,2.52-6.19,4.95-9.04,7.66-2.53,2.4-1.01,6.53-.46,9.53,.36,1.97,.75,3.94,1.01,5.93,.19,1.44,.73,3.27-.21,4.52-2.03,2.71-5.6,3.25-8.59,4.3-.89,.31-1.79,1.19-1.7,2.23,.46,5.03,1.2,10.93-3.1,14.56-1.11,.94-2.33,1.52-3.23,2.69-.99,1.29-1.55,2.81-2.26,4.25-1.25,2.53-2.78,4.96-4.58,7.14-3.75,4.56-8.6,8.55-14.37,10.18-3,.84-5.72,.61-8.77,.47-3.8-.16-7.55,1.02-11.21,1.9-2.62,.62-5.19,.28-7.18-1.67s-2.18-4.25-2.01-6.94c.24-3.71-1.76-6.97-3.53-10.07-1.86-3.25-3.84-6.43-5.53-9.78-3.41-6.8-5.23-14.27-6.2-21.77-.85-6.55-2.92-12.87-6.33-18.54-.83-1.39-1.74-2.73-2.71-4.03-.89-1.18-2.02-2.23-2.07-3.8-.04-1.3,.55-2.75,.8-4.03,.32-1.63,.58-3.28,.88-4.91,.58-3.2,1.25-6.49,2.72-9.42,.69-1.36,1.53-2.56,2.47-3.75,1.03-1.3,1.97-2.76,1.88-4.47-.09-1.88-.87-3.92-1.33-5.74-.51-2.01-1.04-4.01-1.57-6.01-.98-3.67-1.89-7.35-2.81-11.03-.85-3.39-2.73-6.12-5.03-8.71s-5.24-4.19-7.33-6.77c-1.58-1.95-1.9-4.25-1.32-6.65,.94-3.86,1.77-7.66,2.26-11.62,.36-2.91,.3-5.76-1.63-8.14-1.8-2.22-4.57-3-7.33-3.18-1.81-.12-3.63,.06-5.45-.07-1.18-.09-2.97-.32-3.95-1.07-.82-.63-1.07-2.02-1.7-2.92-.79-1.13-1.78-2.14-3.02-2.78-5.28-2.76-11.98,.36-16.99,2.26-1.6,.61-3.26,1.24-4.95,1.55-1.89,.35-3.85,.05-5.75-.06-3.69-.22-7.59,.18-11.25,.67-1.77,.24-3.52,.57-5.21,1.17s-3.19,1.18-4.96,1.06c-3.07-.2-6.12-2.02-8.69-3.58-5.53-3.36-10.11-8.01-14.17-13.01-4.33-5.33-8.31-11.03-12.03-16.79-2.12-3.28-4.18-6.61-6.31-9.89-1.61-2.49-5.62-.17-4,2.34,4.26,6.59,8.4,13.22,12.99,19.59,3.88,5.39,7.91,10.76,12.78,15.31,2.45,2.3,5.12,4.4,7.97,6.18s5.96,3.5,9.22,4.18c1.59,.33,3.16,.39,4.77,.14,1.92-.29,3.65-1.15,5.52-1.62,3.54-.89,7.39-1.03,11.03-1.16,1.96-.07,3.91,.24,5.87,.26s3.83-.33,5.68-.91c3.57-1.11,6.93-2.79,10.59-3.62,1.92-.44,4.43-1,6.15,.29,1,.75,1.42,1.91,1.92,3,.63,1.37,1.77,2.19,3.12,2.78,3.33,1.45,6.71,1.17,10.24,1.3,2.25,.08,4.65,.69,5.07,3.23,.24,1.43-.09,2.97-.29,4.39-.29,2.13-.68,4.24-1.16,6.33-.74,3.19-1.76,6.21-.92,9.5,.72,2.81,2.63,5.14,4.83,6.94,2.79,2.28,5.4,4.57,7.41,7.61s2.24,6.89,3.14,10.23c1.08,4,2.17,7.99,3.16,12.01,.22,.89,.78,2.13,.73,3.02-.03,.5-.28,.93-.65,1.41-1.1,1.45-2.19,2.83-3.02,4.47-1.52,3-2.38,6.25-3.01,9.54s-1.24,6.32-1.87,9.48c-.3,1.51-.15,3.08,.39,4.52,.59,1.58,1.79,2.77,2.75,4.12,3.96,5.52,6.53,11.76,7.65,18.46,.63,3.79,1.01,7.57,1.96,11.31s2.23,7.55,3.8,11.15,3.5,6.82,5.44,10.12c1.73,2.95,4.43,6.39,4.2,9.98-.19,3.02,.05,5.74,1.81,8.33,1.61,2.37,4.07,4.18,6.86,4.89,3.47,.88,6.75-.27,10.12-1.07,1.87-.44,3.76-.84,5.68-.82,1.66,.01,3.29,.31,4.96,.25,6.4-.23,12.28-3.18,17.11-7.26s8.32-8.96,10.86-14.47c.56-1.21,1.02-2.34,2.13-3.12,1.34-.93,2.58-1.91,3.6-3.18,1.82-2.26,2.71-4.93,3.04-7.8s.05-5.57-.2-8.34l-1.7,2.23c2.87-1,5.95-1.63,8.43-3.46s4.23-4.22,4.01-7.43c-.25-3.62-1-7.17-1.62-10.74-.16-.92-.32-1.85-.45-2.77-.05-.32-.3-1.18-.12-1.47-.51,.87,.54-.01,.52,0,.3-.17,.64-.56,.92-.8,.77-.66,1.54-1.32,2.31-1.97,2.86-2.42,5.77-4.79,8.62-7.22,2.28-1.94,4.81-3.68,6.97-5.76,4.68-4.5,4.44-11.95,4.04-17.96-.23-3.5-1.17-6.63-2.3-9.93-1.19-3.46-2.02-7.05-2.91-10.6-.43-1.73-.84-3.46-1.24-5.19-.14-.61-.49-1.53-.4-2.1,.1-.61,.8-1.58,1.04-2.18,1.16-2.85,2.59-5.56,4.27-8.14,3.34-5.11,7.63-9.54,12.33-13.42,2.37-1.96,4.94-3.67,7.31-5.63s4.69-4.23,6.77-6.59c4.54-5.15,8.28-10.92,11.75-16.83,1.71-2.9,3.74-5.85,4.97-8.99,1.38-3.53,1.44-7.46,2.18-11.15,.35-1.75-1.06-3.26-2.85-2.85-5.03,1.15-10.08,2.22-15.1,3.43-2.12,.51-4.23,1.07-6.35,1.6-1.29,.32-2.48,.64-3.59,.66-.25,0-.5,0-.75-.03,.46,.06-.08-.02-.23-.1-.11-.05,.26,.15-.13-.07-.42-.25,.05,.13-.32-.23-.75-.74-1.35-1.8-1.98-2.94-1.05-1.91-1.9-3.95-3.21-5.71s-2.84-3.15-4.52-4.47c-2.88-2.27-6.04-4.24-8.6-6.89-1.17-1.21-2.18-2.59-2.84-4.14-.35-.84-.59-1.74-.76-2.63-.2-1.11-.11-2.21-.73-3.2-.49-.78-1.28-1.27-1.74-2.05-.69-1.17-1.19-2.51-1.75-3.75-1.11-2.45-2.22-4.91-3.12-7.45-.81-2.28-1.47-4.96-2.93-6.92-.57-.77-1.3-1.32-2.05-1.89-.87-.66-1.01-.65-1.16-1.65-.61-3.99-1.39-7.91-3.17-11.56-.85-1.74-1.88-3.39-2.92-5.03-1.12-1.76-3-3.71-3.31-5.82l-4.23,1.78c.74,1.05,1.52,2.32,2.76,2.82,.27,.11,.97,.43,1.19,.22-.43,.4-1.52-1.13-.62,.15,.55,.79,1.61,1.43,2.61,1.06l1.57-.58c.91-.33,1.78-1.17,1.7-2.23-.23-3.19-.55-6.37-.67-9.56-.07-2.02-.21-4.05-1.43-5.74s-3-2.46-4.89-2.95c-2.52-.65-5.14-1.19-7.72-1.54s-5.23-.32-7.69,.63c-.58,.22-1.16,.47-1.7,.77-.21,.12-.73,.35-.92,.55,.02-.03-.93,.67-.19,.49-.41,.1-1.39-.49-1.76-.65-.64-.27-1.29-.52-1.95-.75-5.29-1.84-10.95-2.35-16.23-4.26-4.53-1.63-8.51-5.68-13.59-3.3-1.9,.89-3.33,2.53-4.18,4.43-.47,1.03-.78,2.09-.95,3.21s-.03,2.38-.41,3.47c-.06,.18-.27,.76-.42,.81-.67,.19-2.17-1.22-2.73-1.51-1.96-1.03-4.09-1.63-6.21-2.22-2-.56-4.04-1.12-5.76-2.32s-2.51-3.3-4.53-4.16c-2.34-1-4.98-.93-7.36-1.85-1.63-.63-3.24-1.3-4.82-2.06-.78-.38-1.56-.78-2.31-1.21-.31-.18-.65-.49-.99-.59-.96-.28-.12,2.13,.34,1.31,.52-.93,.76-2.22,1.14-3.23,.47-1.26,.87-2.51,.95-3.86,.16-2.95-.55-6.11-.88-9.03-.1-.92-.64-2.08-1.7-2.23-2.8-.41-5.59-1.06-8.43-1.08s-5.59,.82-8.41,.98c-5.93,.35-11.86,.57-17.72,1.57-2.84,.48-5.66,1.16-8.38,2.13s-5.39,2.53-8.16,3.67c-4.68,1.92-9.97,2.38-14.61,.12-1-.49-1.97-.35-2.8,.36-3.44,2.91-7.2,5.49-10.39,8.68-2.98,2.99-5.67,6.69-7.35,10.57-.81,1.87-1.29,3.73-1.4,5.77-.1,1.77-.24,3.44-1.32,4.92-1.99,2.71-5.23,4.47-7.93,6.36-3,2.1-5.87,4.43-7.76,7.62-2.27,3.83-3.87,8.04-6.15,11.89-1.06,1.79-2.19,3.52-3.43,5.18-1.33,1.79-2.6,3.6-2.84,5.88-.37,3.58,2.38,6.18,3.19,9.49,1.4,5.76-.25,14.43-5.65,17.76-2.53,1.56-.21,5.57,2.34,4Z"/></g><g><path class="cls-1" d="M322.76,239.85c3.98,6.65,5.43,11.27,1.93,18.62-4.3,9-4.84,19.74-7.66,29.54-1.11,3.85-3.23,8.14-6.23,10.55-4.49,3.59-10.33,.26-10.71-5.62-.36-5.58-3.28-11.44,2.01-16.63,1.13-1.11,.65-4.29,.31-6.42-1.41-8.94,.41-10.74,8.16-15.05,4.27-2.38,6.78-7.93,10.07-12.06,.48-.61,.91-1.25,2.13-2.94Z"/><path d="M320.76,241.01c2.3,3.88,4.37,8,3.25,12.6-.63,2.58-1.96,4.91-2.89,7.38s-1.69,5.22-2.31,7.89c-1.22,5.3-2.02,10.69-3.34,15.96-1.05,4.22-2.64,9.67-6.53,12.19-2.87,1.86-5.97-.41-6.51-3.69-.35-2.15-.58-4.33-.91-6.49-.31-1.96-.47-4.03,.2-5.94,.76-2.17,2.89-3.34,3.25-5.69s-.17-4.51-.47-6.75c-.12-.9-.2-1.8-.23-2.71-.01-.41-.01-.81,0-1.22,0-.17,.02-.33,.03-.5,.04-.56-.05,.16,.04-.33,.26-1.38,.64-2.1,1.41-2.9,1.25-1.31,2.71-2.15,4.4-3.12,2.26-1.31,4.26-2.66,5.95-4.69s3.12-4.3,4.62-6.5c1.28-1.88,2.68-3.67,4.01-5.52,.73-1.01,.18-2.58-.83-3.17-1.17-.68-2.43-.19-3.17,.83-.6,.83-1.19,1.67-1.79,2.5-.38,.51,.29-.38-.09,.12-.23,.3-.47,.6-.7,.91-.42,.55-.82,1.11-1.21,1.68-1.42,2.06-2.71,4.25-4.34,6.15s-3.33,2.82-5.35,4.02c-1.62,.96-3.27,2.01-4.61,3.35-2.71,2.72-3.26,6.35-2.9,10.04,.21,2.21,.99,4.64,.7,6.87-.02,.14-.26,.79-.01,.36-.31,.55-.95,1.03-1.34,1.54-.88,1.15-1.54,2.43-1.96,3.82-.74,2.46-.54,5.03-.17,7.52,.17,1.18,.4,2.35,.58,3.54s.2,2.45,.45,3.65c.94,4.62,5.25,8.2,10.03,7.49,5.29-.78,8.47-6.37,10.28-10.87,2.15-5.37,2.92-11.31,4.04-16.96,.64-3.21,1.34-6.41,2.32-9.54s2.59-5.96,3.53-9.07c1.89-6.19-.29-11.81-3.45-17.13-1.52-2.56-5.52-.23-4,2.34Z"/></g></g><path class="cls-1" d="M129.26,299.52c-.45,1.91-.82,3.57-1.26,5.22-.08,.3-.43,.64-.73,.75-4.51,1.56-8.95,3.42-13.57,4.5-4.42,1.03-8.99,.67-13.29-1.16-5.01-2.13-7.93-6.73-7.79-12.25,.13-5.32,1.58-10.38,3-15.46,1.57-5.58,3.21-11.15,4.51-16.79,.58-2.51,.62-5.21,.49-7.81-.11-2.3-1.42-3.31-3.72-3.81-3.28-.7-6.4-.09-9.48,1.02-.44,.16-.89,.26-1.56,.44,.44-1.82,.79-3.43,1.24-5.01,.11-.38,.52-.81,.9-.96,4.95-1.93,9.86-4.07,15.19-4.67,4.72-.53,9.37-.23,13.5,2.51,4.22,2.8,5.66,6.91,5.51,11.81-.17,5.44-1.84,10.55-3.25,15.73-1.55,5.7-3.12,11.39-4.48,17.14-.46,1.95-.54,4.07-.34,6.07,.28,2.82,1.69,4.22,4.54,4.3,2.64,.07,5.3-.39,7.94-.71,.82-.1,1.59-.5,2.65-.85Z"/><path class="cls-1" d="M118,208.86c6.33,.15,11.69,4.53,12.48,10.33,.87,6.33-3.81,12.41-10.16,13.22-5.4,.69-9.97-.87-13.06-5.45-4.24-6.27-1.01-14.83,6.36-17.19,1.41-.45,2.92-.61,4.39-.91Z"/></g></g></g></svg>